CondazArow

------------------

Nederlands:Harry Potter and the deathly hallows part 2 New Source TS Xvid IMAGiNE

met nederlandse ondertiteling.(Voor de Nederlandse piraten:D)

English:Harry Potter And the Deahtly Hallows Part 2 new Source TS Xvid IMAGiNE

with dutch subtitle (For the dutch pirates:D)


******************Details**********************

I'm not ripped the movie,that's a other do,i'm sourced the dutch subtitle and

yes,i'm uploaded.


Ripper: IMAGiNE (Respect for him)

Video Codec: Xvid (Media Player fails,use VLC)

Audio Codec:MP3

                                    Audio Bitrate:128 

                                    Subs:Dutch

                                    Resolution:720 x 304 

                                    Release Date: 26/07/11

                                    Theatre Date: 15/07/11

Runtime: 1h 58mn

Language: ENGLISH

IMDb URL: http://www.imdb.com


Video

ID                               : 0

Format                           : MPEG-4 Visual

Format profile                   : Advanced Simple@L5

Format settings, BVOP            : 2

Format settings, QPel            : No

Format settings, GMC             : No warppoints

Format settings, Matrix          : Default (MPEG)

Codec ID                         : DX50

Codec ID/Hint                    : DivX 5

Duration                         : 1h 58mn

Bit rate                         : 2 377 Kbps

Width                            : 720 pixels

Height                           : 304 pixels

Display aspect ratio             : 2.35:1

Frame rate                       : 29.970 fps

Color space                      : YUV

Chroma subsampling               : 4:2:0

Bit depth                        : 8 bits

Scan type                        : Progressive

Compression mode                 : Lossy

Bits/(Pixel*Frame)               : 0.362

Stream size                      : 1.96 GiB (94%)

Writing library                  : XviD 64



Audio

ID                               : 1

Format                           : MPEG Audio

Format version                   : Version 1

Format profile                   : Layer 3

Codec ID                         : 55

Codec ID/Hint                    : MP3

Duration                         : 1h 58mn

Bit rate mode                    : Constant

Bit rate                         : 128 Kbps

Channel(s)                       : 2 channels

Sampling rate                    : 44.1 KHz

Compression mode                 : Lossy

Stream size                      : 108 MiB (5%)

Alignment                        : Split accross interleaves

Interleave, duration             : 33 ms (1.00 video frame)

Interleave, preload duration     : 500 ms






Enjoy the new release of HP (FinaL)!


We all want freedom,we dont get,so lets make freedom.